# xmcd
#
# Track frame offsets: 
#        150
#        10725
#        22146
#        35279
#        51829
#        64002
#        75600
#        88058
#        105364
#        116997
#        128050
#
# Disc length: 1816 seconds
#
# Revision: 0
# Processed by: cddbd v1.5.2PL0 Copyright (c) Steve Scherf et al.
# Submitted via: ExactAudioCopyFreeDBPlugin 1.0
#
DISCID=8707160b
DTITLE=Klaus Brendel - Acoustic Avenue
DYEAR=2002
DGENRE=Blues
TTITLE0=Jump for Joy
TTITLE1=Rose of El Paso
TTITLE2=Acoustic Avenue
TTITLE3=Summer Breeze
TTITLE4=Ziller House
TTITLE5=On Sunset Beach
TTITLE6=Silent Ocean
TTITLE7=Take Me to Granada
TTITLE8=Lonesome Desert Blues
TTITLE9=After the Rain
TTITLE10=Kitchen Dancer
EXTD=
EXTT0=
EXTT1=
EXTT2=
EXTT3=
EXTT4=
EXTT5=
EXTT6=
EXTT7=
EXTT8=
EXTT9=
EXTT10=
PLAYORDER=
